<svg width="16" height="16" viewBox="0 0 16 16" xmlns="http://www.w3.org/2000/svg">
    <g fill="none" fill-rule="evenodd">
        <circle fill="#42526E" cx="8" cy="8" r="7"/>
        <path d="M8.786 6.608c.277 0 .44.117.44.365 0 .204-.033.408-.082.612-.147.757-.31 1.5-.456 2.258-.049.248-.114.496-.146.744a.926.926 0 0 0 .032.364c.05.16.18.248.358.233.147-.015.293-.058.44-.117.114-.043.212-.116.326-.145.195-.059.341.043.293.204a.686.686 0 0 1-.163.247A2.24 2.24 0 0 1 8.265 12c-.26 0-.508 0-.766-.03l-.097-.014c-.472-.058-1.074-.583-.993-1.136l.195-1.137c.13-.656.26-1.326.391-1.982 0-.043.016-.087.016-.13 0-.268-.09-.372-.374-.405l-.033-.004c-.13-.014-.26-.029-.39-.058-.147-.044-.228-.16-.212-.262.016-.117.098-.19.26-.219.082-.015.18-.015.277-.015h2.247zM8.314 4c.65 0 1.172.48 1.172 1.064 0 .583-.537 1.064-1.172 1.064-.651 0-1.189-.481-1.189-1.079C7.125 4.466 7.663 4 8.314 4z" fill="#FFF"/>
    </g>
</svg>
